<svg version="1.1" id="Layer_1" xmlns="http://www.w3.org/2000/svg" xmlns:xlink="http://www.w3.org/1999/xlink" x="0px" y="0px"
	 width="100%" viewBox="0 0 576 1024" enable-background="new 0 0 576 1024" xml:space="preserve">
<path fill="#26975A" opacity="1.000000" stroke="none" 
	d="
M577.000000,559.000000 
	C577.000000,589.354248 577.000000,619.708435 576.531372,650.529785 
	C565.937012,650.546082 555.807678,650.162903 545.687195,649.615601 
	C540.748962,649.348572 535.824402,648.410095 530.899048,648.449707 
	C526.479980,648.485107 522.030396,650.090576 517.662781,649.834778 
	C511.935760,649.499329 506.271637,647.169189 500.588013,647.197937 
	C487.199707,647.265625 473.813690,648.177368 460.431030,648.835266 
	C450.202271,649.338135 439.983246,650.042358 429.753815,650.528870 
	C423.147766,650.843201 416.520660,650.759521 409.921265,651.157654 
	C402.837463,651.584961 395.786102,652.673706 388.700928,652.930237 
	C374.758514,653.434998 360.803436,653.643127 346.851624,653.813599 
	C340.221313,653.894592 333.573120,653.831177 326.956726,653.436157 
	C316.193817,652.793579 305.462280,651.525024 294.694580,651.097229 
	C287.287720,650.802917 279.843781,651.583252 272.413483,651.705811 
	C260.494476,651.902649 248.570755,651.854797 236.654266,652.133728 
	C233.719543,652.202454 230.814133,653.510315 227.879059,653.581543 
	C222.976044,653.700500 218.059921,653.283508 213.149429,653.089600 
	C208.085907,652.889648 203.022675,652.682556 197.959015,652.486023 
	C191.526794,652.236450 185.090775,651.753784 178.663376,651.848083 
	C175.316193,651.897156 171.985794,653.475830 168.644730,653.487610 
	C157.049561,653.528564 145.448517,653.319214 133.859177,652.926025 
	C128.951096,652.759460 124.055351,651.983643 119.174164,651.333313 
	C113.590477,650.589478 108.049454,649.280762 102.450241,648.995239 
	C99.363617,648.837708 96.227592,650.668945 93.058784,650.926575 
	C79.237434,652.050232 65.454636,652.637329 51.579792,650.661072 
	C42.386086,649.351624 32.970711,649.682373 23.688900,648.881165 
	C16.099579,648.226074 8.561043,646.982666 0.999996,646.000000 
	C1.000000,615.979126 1.000000,585.958191 1.414078,555.482300 
	C10.120180,557.227295 18.367540,559.621094 26.722853,561.546387 
	C30.981470,562.527771 35.422760,562.816406 39.801964,563.146118 
	C44.081059,563.468262 48.407471,563.777710 52.675682,563.505615 
	C62.880886,562.855103 73.050163,561.461060 83.259705,561.104492 
	C95.685570,560.670532 108.137863,561.000000 120.578674,560.975464 
	C121.739136,560.973145 122.901558,560.822510 124.059189,560.703125 
	C133.345047,559.745178 142.540619,559.209106 151.772141,561.794128 
	C155.466049,562.828491 159.616867,562.264709 163.561325,562.363037 
	C169.773300,562.517883 175.987686,562.753357 182.199158,562.705750 
	C189.751144,562.647827 197.359680,562.850037 204.838394,562.006104 
	C216.161438,560.728149 227.420990,557.691467 238.303406,563.934143 
	C239.667313,564.716553 241.572372,565.064575 243.145187,564.887878 
	C250.881195,564.019104 258.596130,562.951111 266.306335,561.866882 
	C276.774597,560.394775 287.015045,557.134949 297.851776,558.779968 
	C305.018219,559.867859 312.298309,560.826904 319.520416,560.778564 
	C329.561157,560.711426 339.587524,559.299316 349.633636,559.077820 
	C374.360107,558.532410 399.093811,558.130859 423.825623,558.066223 
	C444.573456,558.012024 465.323059,558.492188 486.071075,558.790283 
	C490.528198,558.854248 494.988037,559.402283 499.436066,559.294006 
	C511.702057,558.995422 523.961487,558.153198 536.225403,558.113708 
	C549.815857,558.069885 563.408386,558.676575 577.000000,559.000000 
z"/>
<path fill="#AACF4C" opacity="1.000000" stroke="none" 
	d="
M1.000000,77.000000 
	C1.000000,51.681728 1.000000,26.363457 1.000003,1.050606 
	C193.000015,1.056026 385.000000,1.056026 577.000000,1.056026 
	C577.000000,28.762262 577.000000,56.412472 576.533386,84.531639 
	C565.124390,85.615021 554.183167,86.250252 543.238403,86.819183 
	C541.767212,86.895653 540.058167,87.077934 538.833252,86.464493 
	C529.902771,81.991882 520.532532,82.713745 511.079010,83.681625 
	C502.375610,84.572716 493.694427,84.952408 485.629944,80.882484 
	C484.714844,82.066772 483.658386,83.433960 482.445801,85.003235 
	C481.581543,82.491058 481.060028,80.975189 480.538513,79.459305 
	C479.003723,80.162285 477.489380,80.915131 475.928650,81.554756 
	C474.246948,82.243958 472.521729,82.827080 469.974335,83.766792 
	C471.380829,79.734093 471.999176,77.007782 467.296234,77.224709 
	C459.784149,77.571190 452.258392,77.635559 444.749207,78.026222 
	C436.150696,78.473534 427.571198,79.342072 418.969849,79.663673 
	C411.350128,79.948578 403.372040,81.161232 396.152496,79.442535 
	C381.293152,75.905083 366.775909,77.533020 352.063477,79.204956 
	C346.801025,79.802986 341.236603,80.726662 336.194946,79.668236 
	C325.468903,77.416443 314.806854,77.384666 304.005920,77.967201 
	C295.102692,78.447403 286.176727,79.009613 277.272736,78.853775 
	C263.894012,78.619614 250.370453,81.182968 237.156387,77.036926 
	C233.560852,75.908791 229.902664,74.209114 226.257019,74.166763 
	C217.726639,74.067657 209.011047,71.946793 200.656036,75.697708 
	C199.567795,76.186264 197.994644,75.912567 196.727219,75.629158 
	C191.229187,74.399719 185.713745,73.205269 180.292007,71.686249 
	C168.095444,68.269096 155.993744,66.816330 143.809158,71.827286 
	C141.074310,72.952011 138.050217,73.642807 135.100815,73.927505 
	C125.066849,74.896072 115.017509,75.795311 104.953331,76.333923 
	C96.174980,76.803719 87.360550,77.075172 78.576431,76.856743 
	C62.985809,76.469055 47.408817,75.249916 31.820805,75.141312 
	C21.552019,75.069778 11.273926,76.333939 1.000000,77.000000 
z"/>
<path fill="#389E5A" opacity="1.000000" stroke="none" 
	d="
M577.000000,558.531372 
	C563.408386,558.676575 549.815857,558.069885 536.225403,558.113708 
	C523.961487,558.153198 511.702057,558.995422 499.436066,559.294006 
	C494.988037,559.402283 490.528198,558.854248 486.071075,558.790283 
	C465.323059,558.492188 444.573456,558.012024 423.825623,558.066223 
	C399.093811,558.130859 374.360107,558.532410 349.633636,559.077820 
	C339.587524,559.299316 329.561157,560.711426 319.520416,560.778564 
	C312.298309,560.826904 305.018219,559.867859 297.851776,558.779968 
	C287.015045,557.134949 276.774597,560.394775 266.306335,561.866882 
	C258.596130,562.951111 250.881195,564.019104 243.145187,564.887878 
	C241.572372,565.064575 239.667313,564.716553 238.303406,563.934143 
	C227.420990,557.691467 216.161438,560.728149 204.838394,562.006104 
	C197.359680,562.850037 189.751144,562.647827 182.199158,562.705750 
	C175.987686,562.753357 169.773300,562.517883 163.561325,562.363037 
	C159.616867,562.264709 155.466049,562.828491 151.772141,561.794128 
	C142.540619,559.209106 133.345047,559.745178 124.059189,560.703125 
	C122.901558,560.822510 121.739136,560.973145 120.578674,560.975464 
	C108.137863,561.000000 95.685570,560.670532 83.259705,561.104492 
	C73.050163,561.461060 62.880886,562.855103 52.675682,563.505615 
	C48.407471,563.777710 44.081059,563.468262 39.801964,563.146118 
	C35.422760,562.816406 30.981470,562.527771 26.722853,561.546387 
	C18.367540,559.621094 10.120180,557.227295 1.414078,555.013672 
	C1.000000,531.979126 1.000000,508.958221 1.410356,485.481842 
	C4.102225,485.485321 6.388492,485.921997 8.664219,486.408051 
	C12.882197,487.308929 17.145891,489.182373 21.297287,488.954193 
	C29.226820,488.518311 37.060364,486.383453 44.991016,485.907043 
	C52.490849,485.456512 60.217468,483.507751 67.574013,486.982880 
	C70.922623,488.564667 74.233063,490.227295 76.052902,491.116516 
	C80.074356,488.814789 83.995544,485.171783 85.447563,485.977661 
	C92.309341,489.785950 99.456650,486.839813 106.355499,487.978607 
	C113.174919,489.104340 120.299026,488.358673 127.288315,488.494202 
	C129.857651,488.544006 133.816864,489.862610 134.728958,488.703522 
	C137.424866,485.277588 139.504517,487.472473 142.084427,488.083252 
	C144.935806,488.758331 147.929245,488.915131 150.873199,489.098053 
	C155.144897,489.363464 159.577759,488.830505 163.655945,489.818420 
	C166.651321,490.544006 168.567169,490.413025 170.867493,488.472015 
	C172.057999,487.467407 174.161758,486.706116 175.617233,487.000427 
	C181.797821,488.250305 187.817062,490.640778 194.033112,491.285889 
	C201.862640,492.098480 210.340210,495.719025 217.174576,488.696442 
	C220.018997,489.735168 222.874405,491.820343 225.485321,491.549438 
	C236.315781,490.425690 247.190125,489.129913 257.811768,486.812836 
	C264.121613,485.436340 269.841339,486.266479 275.889771,487.314728 
	C278.614594,487.786987 281.611450,486.789886 284.470886,486.365173 
	C290.788971,485.426788 297.072205,483.890686 303.417236,483.584747 
	C312.232117,483.159729 321.094574,483.841187 329.929230,483.669006 
	C337.345337,483.524536 344.748505,482.516663 352.161530,482.463562 
	C363.387268,482.383179 374.622772,482.633759 385.842834,483.048828 
	C398.756989,483.526550 411.653870,484.693329 424.567871,484.874695 
	C432.988647,484.992950 441.424561,483.739136 449.660126,486.582520 
	C450.679016,486.934326 451.953369,486.488373 453.106476,486.519196 
	C457.867340,486.646576 462.629913,486.756378 467.386383,486.986115 
	C471.678589,487.193390 475.983612,487.962341 480.247925,487.756683 
	C490.753448,487.250092 501.251465,485.593964 511.728790,485.774658 
	C522.256409,485.956299 532.761963,487.741516 543.263916,488.940674 
	C548.155640,489.499237 553.022217,490.941833 557.888916,490.891785 
	C564.265076,490.826172 570.630127,489.680908 577.000000,489.000000 
	C577.000000,512.020874 577.000000,535.041809 577.000000,558.531372 
z"/>
<path fill="#127652" opacity="1.000000" stroke="none" 
	d="
M0.999998,839.000000 
	C1.000000,819.645752 1.000000,800.291565 1.376840,780.437073 
	C10.715118,777.647339 19.568407,774.141296 28.661512,773.332825 
	C45.306725,771.853088 61.884617,768.663574 78.736641,769.949768 
	C81.832863,770.186035 85.173264,769.214722 88.033272,770.053955 
	C91.671989,771.121582 94.854774,771.292603 98.634964,770.587524 
	C103.356445,769.706909 109.069229,767.785828 111.956192,774.609131 
	C112.274254,775.360840 114.919739,775.474243 116.421776,775.307434 
	C119.705406,774.942688 122.926834,773.926575 126.211433,773.680481 
	C133.495834,773.134644 140.988922,776.151428 148.109940,772.336182 
	C148.764465,771.985535 149.745377,772.269470 150.571060,772.208862 
	C155.134140,771.873901 159.694443,771.499329 164.259094,771.187988 
	C166.710144,771.020874 169.188644,770.694946 171.618927,770.889221 
	C178.852020,771.467407 186.055267,772.634827 193.293213,772.873596 
	C200.032516,773.095886 206.920013,771.540161 213.518799,772.428101 
	C218.579712,773.109070 223.217834,773.455017 228.098587,772.016235 
	C234.993759,769.983582 241.771698,769.607910 248.077667,774.112305 
	C249.052231,774.808411 250.632401,774.990234 251.892792,774.893372 
	C256.693207,774.524353 261.467621,773.666870 266.269562,773.497986 
	C277.340179,773.108704 288.421082,772.863220 299.497955,772.858521 
	C306.267029,772.855652 313.062744,773.933350 319.799744,773.594849 
	C331.977325,772.982971 344.123322,771.712891 356.276123,770.645203 
	C368.398346,769.580261 380.494141,768.111633 392.635498,767.395752 
	C406.242371,766.593506 419.885468,766.353882 433.516754,766.044983 
	C438.309082,765.936279 443.111877,766.426941 447.912109,766.501221 
	C455.514709,766.618896 463.125916,766.435791 470.720886,766.718567 
	C477.562164,766.973267 483.686462,770.494446 491.306580,768.667603 
	C500.139130,766.550049 509.694458,767.005615 518.927002,767.114258 
	C529.490540,767.238525 540.042480,768.241394 550.603149,768.792419 
	C553.758484,768.957092 557.234558,769.747253 560.024658,768.747131 
	C566.065002,766.581909 571.436340,768.484009 577.000000,770.000000 
	C577.000000,793.354248 577.000000,816.708435 576.591919,840.620361 
	C568.729187,841.524292 561.233032,842.538513 553.828430,842.078735 
	C538.015564,841.096924 522.251831,839.331421 506.463165,837.941406 
	C504.171875,837.739746 501.850128,837.731079 499.549347,837.816650 
	C490.580139,838.150452 481.605408,839.006958 472.647858,838.842834 
	C455.086578,838.521118 437.539642,837.409363 419.978333,837.092468 
	C410.068390,836.913635 400.143219,837.843689 390.221863,837.930847 
	C384.586273,837.980408 378.933014,836.929810 373.307983,837.089355 
	C360.854828,837.442688 348.414856,838.255249 335.968689,838.864136 
	C329.994751,839.156494 323.957916,840.090820 318.055054,839.560425 
	C297.558716,837.718628 276.989655,836.515686 256.823303,831.681274 
	C250.704605,830.214478 243.679230,829.865234 237.637054,831.336487 
	C227.253265,833.864807 216.995712,833.650696 206.557251,833.454956 
	C201.281357,833.355957 195.824951,833.619690 190.736908,834.878418 
	C182.567642,836.899597 174.769394,840.815735 166.000687,838.185120 
	C165.554031,838.051086 165.003372,838.173462 164.519211,838.268494 
	C157.118057,839.721924 149.763779,841.508728 142.304764,842.537476 
	C137.773026,843.162598 133.060333,842.895142 128.464020,842.554810 
	C114.095970,841.490967 99.730751,840.343018 85.392967,838.936768 
	C78.868416,838.296875 72.748329,839.574341 66.408180,840.776672 
	C58.634865,842.250793 50.590130,842.363586 42.649624,842.851624 
	C39.515774,843.044189 36.329227,842.831299 33.196659,842.510437 
	C22.457266,841.410339 11.731161,840.180481 0.999998,839.000000 
z"/>
<path fill="#0D523D" opacity="1.000000" stroke="none" 
	d="
M577.000000,952.000000 
	C577.000000,976.318420 577.000000,1000.636780 577.000000,1024.952271 
	C385.000000,1024.949341 192.999985,1024.949341 1.000000,1024.949341 
	C1.000000,1003.911560 1.000000,982.924438 1.375113,961.550598 
	C5.436020,962.199524 9.559290,962.515503 12.710156,964.431030 
	C18.107191,967.711975 23.444899,967.294922 29.042046,966.096375 
	C32.598083,965.334900 36.122547,963.661560 39.653732,963.682007 
	C54.229443,963.766479 68.801697,964.555054 83.376610,964.596680 
	C87.364296,964.608093 92.035225,963.909607 95.175072,961.759155 
	C99.081642,959.083557 102.727859,958.845032 106.909561,959.270691 
	C112.829475,959.873230 118.744720,960.761475 124.678925,960.929810 
	C134.444824,961.206909 144.225662,960.910828 153.997421,961.050415 
	C157.972275,961.107117 161.986237,962.229431 165.902451,961.904175 
	C179.943573,960.737793 193.927704,958.420410 207.978058,957.987183 
	C217.989441,957.678467 228.339859,958.622803 238.032227,961.039917 
	C244.800705,962.727844 250.934921,962.771362 257.580627,961.901489 
	C266.744141,960.701782 275.991302,959.557678 285.207275,959.519653 
	C293.156952,959.486877 301.105316,961.124207 309.072174,961.817261 
	C310.977081,961.982971 312.974152,961.430237 314.891571,961.029663 
	C317.642456,960.455139 320.325348,959.461365 323.096558,959.094543 
	C333.269836,957.748108 343.456329,956.481934 353.659637,955.388916 
	C361.897003,954.506470 370.154022,953.679016 378.424194,953.270935 
	C385.356201,952.928833 392.322144,953.348389 399.268829,953.212585 
	C408.049927,953.041077 416.832306,952.300293 425.603882,952.441650 
	C436.035583,952.609741 446.451263,953.700623 456.883728,953.916687 
	C463.676239,954.057495 470.488159,953.386963 477.287964,953.016296 
	C486.707703,952.502808 496.190002,952.444946 505.525543,951.252625 
	C517.475647,949.726501 529.309326,949.754761 541.293579,950.641479 
	C553.160278,951.519409 564.983093,954.820312 577.000000,952.000000 
z"/>
<path fill="#106A4B" opacity="1.000000" stroke="none" 
	d="
M0.999998,839.468689 
	C11.731161,840.180481 22.457266,841.410339 33.196659,842.510437 
	C36.329227,842.831299 39.515774,843.044189 42.649624,842.851624 
	C50.590130,842.363586 58.634865,842.250793 66.408180,840.776672 
	C72.748329,839.574341 78.868416,838.296875 85.392967,838.936768 
	C99.730751,840.343018 114.095970,841.490967 128.464020,842.554810 
	C133.060333,842.895142 137.773026,843.162598 142.304764,842.537476 
	C149.763779,841.508728 157.118057,839.721924 164.519211,838.268494 
	C165.003372,838.173462 165.554031,838.051086 166.000687,838.185120 
	C174.769394,840.815735 182.567642,836.899597 190.736908,834.878418 
	C195.824951,833.619690 201.281357,833.355957 206.557251,833.454956 
	C216.995712,833.650696 227.253265,833.864807 237.637054,831.336487 
	C243.679230,829.865234 250.704605,830.214478 256.823303,831.681274 
	C276.989655,836.515686 297.558716,837.718628 318.055054,839.560425 
	C323.957916,840.090820 329.994751,839.156494 335.968689,838.864136 
	C348.414856,838.255249 360.854828,837.442688 373.307983,837.089355 
	C378.933014,836.929810 384.586273,837.980408 390.221863,837.930847 
	C400.143219,837.843689 410.068390,836.913635 419.978333,837.092468 
	C437.539642,837.409363 455.086578,838.521118 472.647858,838.842834 
	C481.605408,839.006958 490.580139,838.150452 499.549347,837.816650 
	C501.850128,837.731079 504.171875,837.739746 506.463165,837.941406 
	C522.251831,839.331421 538.015564,841.096924 553.828430,842.078735 
	C561.233032,842.538513 568.729187,841.524292 576.591919,841.089050 
	C577.000000,859.354248 577.000000,877.708435 576.580933,896.545166 
	C560.844055,899.135864 545.507446,899.322327 530.088562,898.089844 
	C524.719666,897.660706 519.234375,898.901978 513.823914,898.723633 
	C506.617249,898.485901 499.440460,897.459290 492.235413,897.032654 
	C474.901245,896.006287 457.511658,898.522827 440.169434,896.091614 
	C435.131683,895.385376 429.907379,896.134583 424.797119,895.791565 
	C417.266449,895.286133 409.727417,892.850159 402.314514,896.531921 
	C401.521820,896.925659 400.363861,896.588684 399.375427,896.583008 
	C387.128510,896.512451 374.812347,895.593018 362.652527,896.587036 
	C348.045044,897.781189 333.604431,900.889282 319.026031,902.614929 
	C310.260254,903.652466 302.495605,908.749268 293.221924,907.875244 
	C286.549255,907.246399 279.738983,908.167847 272.988220,908.257446 
	C261.252930,908.413330 249.515289,908.589111 237.780319,908.509094 
	C229.829147,908.454834 221.874207,908.085144 213.937256,907.593445 
	C212.442719,907.500854 211.070053,906.059326 209.561890,905.430359 
	C207.004364,904.363892 204.445404,902.896057 201.775360,902.598267 
	C197.669373,902.140381 193.468414,902.585266 189.308640,902.547974 
	C179.937897,902.463989 170.567474,902.335327 161.197540,902.186096 
	C159.226044,902.154724 157.255417,901.980286 155.287567,901.830322 
	C152.316483,901.604065 149.352417,901.248352 146.377869,901.112610 
	C139.279785,900.788635 132.177658,900.550598 125.076469,900.297424 
	C117.976723,900.044373 110.684853,898.673889 103.817764,899.824951 
	C91.477142,901.893555 79.436821,899.184753 67.260468,899.223267 
	C59.815952,899.246765 52.362133,897.762390 44.923706,897.855103 
	C38.174820,897.939331 31.457983,899.587585 24.696348,899.917297 
	C16.814957,900.301514 8.900249,900.002502 1.000000,900.000000 
	C1.000000,879.979126 1.000000,859.958191 0.999998,839.468689 
z"/>
<path fill="#9BC84E" opacity="1.000000" stroke="none" 
	d="
M1.000000,77.468658 
	C11.273926,76.333939 21.552019,75.069778 31.820805,75.141312 
	C47.408817,75.249916 62.985809,76.469055 78.576431,76.856743 
	C87.360550,77.075172 96.174980,76.803719 104.953331,76.333923 
	C115.017509,75.795311 125.066849,74.896072 135.100815,73.927505 
	C138.050217,73.642807 141.074310,72.952011 143.809158,71.827286 
	C155.993744,66.816330 168.095444,68.269096 180.292007,71.686249 
	C185.713745,73.205269 191.229187,74.399719 196.727219,75.629158 
	C197.994644,75.912567 199.567795,76.186264 200.656036,75.697708 
	C209.011047,71.946793 217.726639,74.067657 226.257019,74.166763 
	C229.902664,74.209114 233.560852,75.908791 237.156387,77.036926 
	C250.370453,81.182968 263.894012,78.619614 277.272736,78.853775 
	C286.176727,79.009613 295.102692,78.447403 304.005920,77.967201 
	C314.806854,77.384666 325.468903,77.416443 336.194946,79.668236 
	C341.236603,80.726662 346.801025,79.802986 352.063477,79.204956 
	C366.775909,77.533020 381.293152,75.905083 396.152496,79.442535 
	C403.372040,81.161232 411.350128,79.948578 418.969849,79.663673 
	C427.571198,79.342072 436.150696,78.473534 444.749207,78.026222 
	C452.258392,77.635559 459.784149,77.571190 467.296234,77.224709 
	C471.999176,77.007782 471.380829,79.734093 469.974335,83.766792 
	C472.521729,82.827080 474.246948,82.243958 475.928650,81.554756 
	C477.489380,80.915131 479.003723,80.162285 480.538513,79.459305 
	C481.060028,80.975189 481.581543,82.491058 482.445801,85.003235 
	C483.658386,83.433960 484.714844,82.066772 485.629944,80.882484 
	C493.694427,84.952408 502.375610,84.572716 511.079010,83.681625 
	C520.532532,82.713745 529.902771,81.991882 538.833252,86.464493 
	C540.058167,87.077934 541.767212,86.895653 543.238403,86.819183 
	C554.183167,86.250252 565.124390,85.615021 576.533386,85.000298 
	C577.000000,102.020897 577.000000,119.041786 576.592590,136.619858 
	C567.606384,137.432114 559.025330,137.920242 550.449707,137.840485 
	C546.375549,137.802612 542.324707,136.325027 538.238342,136.173035 
	C535.364929,136.066147 532.465759,137.408447 529.549622,137.561508 
	C518.654541,138.133392 507.735596,138.297791 496.852173,139.016830 
	C493.182281,139.259308 489.989563,142.468018 485.754791,140.568558 
	C483.800781,139.692078 481.298615,139.990295 479.038940,139.863312 
	C477.966339,139.803024 476.480072,139.572037 475.870972,140.147903 
	C473.678833,142.220612 472.284424,141.504364 470.477325,139.587921 
	C469.584473,138.641098 467.849670,138.110794 466.470764,138.058945 
	C454.579468,137.611832 442.630554,133.710876 430.790649,138.670166 
	C429.383759,139.259460 427.486206,138.549759 425.859100,138.765869 
	C421.616516,139.329407 416.613342,138.869125 413.338531,141.003571 
	C407.176788,145.019623 401.710907,143.490479 395.903961,141.392838 
	C389.258911,138.992432 382.672180,137.818695 375.484985,139.212967 
	C370.713806,140.138550 365.585175,139.933807 360.708588,139.397842 
	C356.107147,138.892120 351.023560,141.681442 346.783844,137.661682 
	C346.592468,137.480225 344.872833,139.289337 343.702545,139.664276 
	C342.293518,140.115723 340.088287,140.737320 339.303497,140.052505 
	C334.068390,135.484131 328.611877,135.932907 322.740875,138.402176 
	C321.455139,138.942932 319.463745,139.253616 318.398132,138.635101 
	C311.419678,134.584747 303.944580,139.329834 296.523132,136.166428 
	C296.883942,138.748383 297.098999,140.287476 297.328705,141.931259 
	C292.894226,141.931259 288.751160,142.281006 284.693878,141.840469 
	C279.897186,141.319626 275.197266,139.958435 270.410828,139.272491 
	C267.847321,138.905106 265.190094,139.171967 262.575378,139.188583 
	C260.785858,139.199951 258.981934,139.444626 257.209808,139.291397 
	C245.166458,138.250107 233.146042,136.514816 221.086807,136.197693 
	C207.048782,135.828552 192.978149,136.657272 178.922791,137.011078 
	C173.781525,137.140472 168.628586,137.745224 163.507202,137.524429 
	C153.431168,137.090057 143.347198,135.413315 133.314423,135.736801 
	C118.231216,136.223114 103.181946,137.906357 88.134743,139.263611 
	C84.357773,139.604294 80.651855,141.167160 76.898567,141.225723 
	C72.227974,141.298615 66.653633,138.573944 63.065292,140.325851 
	C57.279507,143.150604 54.330585,136.676331 49.641441,138.217087 
	C48.222988,138.683182 46.771152,139.152542 45.299759,139.327698 
	C43.181370,139.579865 40.767967,140.252655 38.936848,139.552444 
	C26.309155,134.723694 13.650427,138.139236 1.000000,139.000000 
	C1.000000,118.645775 1.000000,98.291542 1.000000,77.468658 
z"/>
<path fill="#0E8057" opacity="1.000000" stroke="none" 
	d="
M577.000000,769.531372 
	C571.436340,768.484009 566.065002,766.581909 560.024658,768.747131 
	C557.234558,769.747253 553.758484,768.957092 550.603149,768.792419 
	C540.042480,768.241394 529.490540,767.238525 518.927002,767.114258 
	C509.694458,767.005615 500.139130,766.550049 491.306580,768.667603 
	C483.686462,770.494446 477.562164,766.973267 470.720886,766.718567 
	C463.125916,766.435791 455.514709,766.618896 447.912109,766.501221 
	C443.111877,766.426941 438.309082,765.936279 433.516754,766.044983 
	C419.885468,766.353882 406.242371,766.593506 392.635498,767.395752 
	C380.494141,768.111633 368.398346,769.580261 356.276123,770.645203 
	C344.123322,771.712891 331.977325,772.982971 319.799744,773.594849 
	C313.062744,773.933350 306.267029,772.855652 299.497955,772.858521 
	C288.421082,772.863220 277.340179,773.108704 266.269562,773.497986 
	C261.467621,773.666870 256.693207,774.524353 251.892792,774.893372 
	C250.632401,774.990234 249.052231,774.808411 248.077667,774.112305 
	C241.771698,769.607910 234.993759,769.983582 228.098587,772.016235 
	C223.217834,773.455017 218.579712,773.109070 213.518799,772.428101 
	C206.920013,771.540161 200.032516,773.095886 193.293213,772.873596 
	C186.055267,772.634827 178.852020,771.467407 171.618927,770.889221 
	C169.188644,770.694946 166.710144,771.020874 164.259094,771.187988 
	C159.694443,771.499329 155.134140,771.873901 150.571060,772.208862 
	C149.745377,772.269470 148.764465,771.985535 148.109940,772.336182 
	C140.988922,776.151428 133.495834,773.134644 126.211433,773.680481 
	C122.926834,773.926575 119.705406,774.942688 116.421776,775.307434 
	C114.919739,775.474243 112.274254,775.360840 111.956192,774.609131 
	C109.069229,767.785828 103.356445,769.706909 98.634964,770.587524 
	C94.854774,771.292603 91.671989,771.121582 88.033272,770.053955 
	C85.173264,769.214722 81.832863,770.186035 78.736641,769.949768 
	C61.884617,768.663574 45.306725,771.853088 28.661512,773.332825 
	C19.568407,774.141296 10.715118,777.647339 1.376840,779.968384 
	C1.000000,759.645752 1.000000,739.291565 1.405786,718.458008 
	C17.632652,711.925049 34.178097,713.058350 50.618378,712.952393 
	C55.420704,712.921448 60.292183,712.664246 65.005257,711.810913 
	C78.732155,709.325500 92.466629,710.944641 106.213303,711.088623 
	C117.294769,711.204712 128.383377,710.665466 139.468445,710.400452 
	C146.571075,710.230591 153.675491,709.814819 160.774582,709.897583 
	C170.004028,710.005066 179.232819,710.827393 188.454651,710.720093 
	C195.739243,710.635376 203.035294,708.910828 210.287003,709.142639 
	C228.543365,709.726257 246.768799,711.250244 265.024353,711.897705 
	C273.793549,712.208740 282.601013,711.308350 291.394592,711.107727 
	C298.667786,710.941650 305.948761,711.104187 313.221161,710.919434 
	C318.529480,710.784546 323.829681,710.061829 329.133026,710.067383 
	C336.584595,710.075256 344.033936,710.621704 351.487427,710.748657 
	C367.193237,711.016296 382.901611,711.127380 398.607880,711.370850 
	C405.836121,711.482971 413.066925,712.007324 420.286865,711.862305 
	C424.707397,711.773621 429.094360,710.449646 433.522980,710.238708 
	C445.541229,709.666382 457.571442,709.249756 469.601440,709.064209 
	C474.898651,708.982544 480.218811,710.002075 485.507599,709.839539 
	C498.575287,709.437866 511.634064,708.071899 524.690491,708.145142 
	C542.129883,708.243042 559.563782,709.335022 577.000000,710.000000 
	C577.000000,729.687561 577.000000,749.375122 577.000000,769.531372 
z"/>
<path fill="#078B5B" opacity="1.000000" stroke="none" 
	d="
M577.000000,709.531372 
	C559.563782,709.335022 542.129883,708.243042 524.690491,708.145142 
	C511.634064,708.071899 498.575287,709.437866 485.507599,709.839539 
	C480.218811,710.002075 474.898651,708.982544 469.601440,709.064209 
	C457.571442,709.249756 445.541229,709.666382 433.522980,710.238708 
	C429.094360,710.449646 424.707397,711.773621 420.286865,711.862305 
	C413.066925,712.007324 405.836121,711.482971 398.607880,711.370850 
	C382.901611,711.127380 367.193237,711.016296 351.487427,710.748657 
	C344.033936,710.621704 336.584595,710.075256 329.133026,710.067383 
	C323.829681,710.061829 318.529480,710.784546 313.221161,710.919434 
	C305.948761,711.104187 298.667786,710.941650 291.394592,711.107727 
	C282.601013,711.308350 273.793549,712.208740 265.024353,711.897705 
	C246.768799,711.250244 228.543365,709.726257 210.287003,709.142639 
	C203.035294,708.910828 195.739243,710.635376 188.454651,710.720093 
	C179.232819,710.827393 170.004028,710.005066 160.774582,709.897583 
	C153.675491,709.814819 146.571075,710.230591 139.468445,710.400452 
	C128.383377,710.665466 117.294769,711.204712 106.213303,711.088623 
	C92.466629,710.944641 78.732155,709.325500 65.005257,711.810913 
	C60.292183,712.664246 55.420704,712.921448 50.618378,712.952393 
	C34.178097,713.058350 17.632652,711.925049 1.405786,717.989380 
	C1.000000,694.312439 1.000000,670.624878 0.999996,646.468689 
	C8.561043,646.982666 16.099579,648.226074 23.688900,648.881165 
	C32.970711,649.682373 42.386086,649.351624 51.579792,650.661072 
	C65.454636,652.637329 79.237434,652.050232 93.058784,650.926575 
	C96.227592,650.668945 99.363617,648.837708 102.450241,648.995239 
	C108.049454,649.280762 113.590477,650.589478 119.174164,651.333313 
	C124.055351,651.983643 128.951096,652.759460 133.859177,652.926025 
	C145.448517,653.319214 157.049561,653.528564 168.644730,653.487610 
	C171.985794,653.475830 175.316193,651.897156 178.663376,651.848083 
	C185.090775,651.753784 191.526794,652.236450 197.959015,652.486023 
	C203.022675,652.682556 208.085907,652.889648 213.149429,653.089600 
	C218.059921,653.283508 222.976044,653.700500 227.879059,653.581543 
	C230.814133,653.510315 233.719543,652.202454 236.654266,652.133728 
	C248.570755,651.854797 260.494476,651.902649 272.413483,651.705811 
	C279.843781,651.583252 287.287720,650.802917 294.694580,651.097229 
	C305.462280,651.525024 316.193817,652.793579 326.956726,653.436157 
	C333.573120,653.831177 340.221313,653.894592 346.851624,653.813599 
	C360.803436,653.643127 374.758514,653.434998 388.700928,652.930237 
	C395.786102,652.673706 402.837463,651.584961 409.921265,651.157654 
	C416.520660,650.759521 423.147766,650.843201 429.753815,650.528870 
	C439.983246,650.042358 450.202271,649.338135 460.431030,648.835266 
	C473.813690,648.177368 487.199707,647.265625 500.588013,647.197937 
	C506.271637,647.169189 511.935760,649.499329 517.662781,649.834778 
	C522.030396,650.090576 526.479980,648.485107 530.899048,648.449707 
	C535.824402,648.410095 540.748962,649.348572 545.687195,649.615601 
	C555.807678,650.162903 565.937012,650.546082 576.531372,650.998413 
	C577.000000,670.354248 577.000000,689.708435 577.000000,709.531372 
z"/>
<path fill="#6AB357" opacity="1.000000" stroke="none" 
	d="
M577.000000,282.000000 
	C577.000000,300.354218 577.000000,318.708466 576.531372,337.531342 
	C566.235840,338.064240 556.369507,337.595032 546.591309,338.317230 
	C531.802673,339.409485 517.090027,340.052582 502.428436,337.351440 
	C492.002838,335.430725 481.475494,334.674072 470.910522,334.252380 
	C470.269409,334.226807 469.451385,334.296265 468.994232,334.665924 
	C464.226410,338.520844 458.801056,338.508514 452.988312,338.221375 
	C436.637390,337.413727 420.262360,337.095551 403.897583,336.561890 
	C403.424255,336.546478 402.969147,336.215607 402.488556,336.139771 
	C398.065338,335.441803 393.624634,334.844666 389.217987,334.056122 
	C386.795074,333.622589 384.427704,332.878662 381.653809,332.178345 
	C380.532013,332.599548 378.675751,333.831787 376.779449,333.896820 
	C372.856506,334.031494 368.897614,333.212952 364.980011,333.386261 
	C357.850403,333.701691 350.744019,334.509094 343.620880,335.010773 
	C334.783997,335.633179 325.728882,335.195953 317.178894,337.080536 
	C312.129120,338.193604 307.394592,338.278229 302.570221,337.840637 
	C299.938171,337.601898 297.471771,335.699493 294.893860,334.636597 
	C293.447571,334.040283 291.833466,333.029694 290.456635,333.244080 
	C286.686829,333.830994 283.049774,335.355804 279.275726,335.814148 
	C268.089264,337.172791 256.884308,338.767883 245.645233,339.204224 
	C232.211990,339.725769 218.735977,339.131531 205.278275,339.063324 
	C204.127029,339.057465 202.974899,339.510620 201.821869,339.517151 
	C191.050690,339.578247 180.275787,339.768829 169.508820,339.562988 
	C158.471756,339.351990 147.532104,336.122345 136.373047,338.846069 
	C133.551346,339.534790 130.437073,339.081818 127.458115,339.055206 
	C123.487305,339.019775 119.512794,338.721436 115.547905,338.829926 
	C104.578438,339.130066 93.614326,339.847198 82.645828,339.896881 
	C72.707512,339.941925 62.766438,339.081665 52.826149,339.072174 
	C43.855564,339.063599 34.884678,339.916229 25.913391,339.926636 
	C17.609297,339.936279 9.304492,339.333221 1.000000,339.000000 
	C1.000000,319.979095 1.000000,300.958221 1.400652,281.466675 
	C3.573354,280.291534 5.341226,279.576294 7.118671,278.885681 
	C8.758217,278.248688 10.392256,277.146454 12.055833,277.093018 
	C26.688932,276.622925 41.327766,276.115479 55.965599,276.093994 
	C64.050659,276.082123 72.143700,277.474213 80.221497,277.365845 
	C98.640358,277.118774 117.051033,276.299591 135.467545,275.806213 
	C138.892120,275.714447 142.336533,276.277008 145.757263,276.149017 
	C150.382812,275.975952 155.121429,274.550812 159.588776,275.198761 
	C174.987045,277.432159 190.371780,275.604218 205.751770,275.881836 
	C217.000214,276.084869 228.241867,276.751801 239.489929,276.859375 
	C248.075363,276.941528 256.665436,276.439636 265.254761,276.262421 
	C268.574005,276.193939 271.897247,276.348663 275.218079,276.322784 
	C280.656097,276.280426 286.098419,275.992523 291.530090,276.138306 
	C298.757568,276.332336 305.979950,276.793213 313.194489,277.285950 
	C314.012238,277.341797 315.307556,278.224609 315.459473,278.924194 
	C316.357727,283.060333 319.877960,283.775024 322.786896,283.505371 
	C328.054199,283.017090 333.826630,282.499146 338.192291,279.947540 
	C340.570007,278.557831 342.438904,276.974731 345.299927,276.998505 
	C348.632233,277.026245 351.971130,276.892212 355.294525,277.067810 
	C356.696655,277.141907 358.342743,277.472076 359.404144,278.296143 
	C364.594299,282.325806 369.926605,284.605560 376.618500,281.916382 
	C378.051575,281.340546 380.217194,282.345673 381.964691,282.884186 
	C383.028259,283.211945 384.084015,284.715637 384.893585,284.540009 
	C393.373077,282.700897 401.972443,284.778656 410.198700,284.033478 
	C416.844330,283.431458 423.499146,282.841248 430.204773,282.672516 
	C431.424286,282.641815 433.466278,281.764099 433.687958,280.905426 
	C435.498444,273.893188 441.240845,279.326996 444.692444,277.453735 
	C445.274353,277.137909 447.414368,279.692902 448.834473,280.921478 
	C455.937988,281.941101 463.363159,282.170166 470.761383,281.823944 
	C473.567291,281.692657 476.299255,280.194458 479.087311,279.397614 
	C481.176208,278.800598 483.276672,278.162262 485.416870,277.850555 
	C487.371521,277.565918 489.389191,277.744324 491.374390,277.633942 
	C500.609924,277.120483 509.840973,276.283813 519.079773,276.194946 
	C522.606323,276.161011 527.337952,274.615173 528.958252,280.403625 
	C531.400208,275.840820 533.105286,275.896149 535.970337,279.229248 
	C537.800720,281.358582 540.289490,283.766754 542.826843,284.251801 
	C546.966309,285.043152 551.405518,284.600708 555.684021,284.255066 
	C562.803589,283.679871 569.896118,282.769318 577.000000,282.000000 
z"/>
<path fill="#0F5D44" opacity="1.000000" stroke="none" 
	d="
M1.000000,900.468628 
	C8.900249,900.002502 16.814957,900.301514 24.696348,899.917297 
	C31.457983,899.587585 38.174820,897.939331 44.923706,897.855103 
	C52.362133,897.762390 59.815952,899.246765 67.260468,899.223267 
	C79.436821,899.184753 91.477142,901.893555 103.817764,899.824951 
	C110.684853,898.673889 117.976723,900.044373 125.076469,900.297424 
	C132.177658,900.550598 139.279785,900.788635 146.377869,901.112610 
	C149.352417,901.248352 152.316483,901.604065 155.287567,901.830322 
	C157.255417,901.980286 159.226044,902.154724 161.197540,902.186096 
	C170.567474,902.335327 179.937897,902.463989 189.308640,902.547974 
	C193.468414,902.585266 197.669373,902.140381 201.775360,902.598267 
	C204.445404,902.896057 207.004364,904.363892 209.561890,905.430359 
	C211.070053,906.059326 212.442719,907.500854 213.937256,907.593445 
	C221.874207,908.085144 229.829147,908.454834 237.780319,908.509094 
	C249.515289,908.589111 261.252930,908.413330 272.988220,908.257446 
	C279.738983,908.167847 286.549255,907.246399 293.221924,907.875244 
	C302.495605,908.749268 310.260254,903.652466 319.026031,902.614929 
	C333.604431,900.889282 348.045044,897.781189 362.652527,896.587036 
	C374.812347,895.593018 387.128510,896.512451 399.375427,896.583008 
	C400.363861,896.588684 401.521820,896.925659 402.314514,896.531921 
	C409.727417,892.850159 417.266449,895.286133 424.797119,895.791565 
	C429.907379,896.134583 435.131683,895.385376 440.169434,896.091614 
	C457.511658,898.522827 474.901245,896.006287 492.235413,897.032654 
	C499.440460,897.459290 506.617249,898.485901 513.823914,898.723633 
	C519.234375,898.901978 524.719666,897.660706 530.088562,898.089844 
	C545.507446,899.322327 560.844055,899.135864 576.580933,897.013855 
	C577.000000,915.020874 577.000000,933.041809 577.000000,951.531372 
	C564.983093,954.820312 553.160278,951.519409 541.293579,950.641479 
	C529.309326,949.754761 517.475647,949.726501 505.525543,951.252625 
	C496.190002,952.444946 486.707703,952.502808 477.287964,953.016296 
	C470.488159,953.386963 463.676239,954.057495 456.883728,953.916687 
	C446.451263,953.700623 436.035583,952.609741 425.603882,952.441650 
	C416.832306,952.300293 408.049927,953.041077 399.268829,953.212585 
	C392.322144,953.348389 385.356201,952.928833 378.424194,953.270935 
	C370.154022,953.679016 361.897003,954.506470 353.659637,955.388916 
	C343.456329,956.481934 333.269836,957.748108 323.096558,959.094543 
	C320.325348,959.461365 317.642456,960.455139 314.891571,961.029663 
	C312.974152,961.430237 310.977081,961.982971 309.072174,961.817261 
	C301.105316,961.124207 293.156952,959.486877 285.207275,959.519653 
	C275.991302,959.557678 266.744141,960.701782 257.580627,961.901489 
	C250.934921,962.771362 244.800705,962.727844 238.032227,961.039917 
	C228.339859,958.622803 217.989441,957.678467 207.978058,957.987183 
	C193.927704,958.420410 179.943573,960.737793 165.902451,961.904175 
	C161.986237,962.229431 157.972275,961.107117 153.997421,961.050415 
	C144.225662,960.910828 134.444824,961.206909 124.678925,960.929810 
	C118.744720,960.761475 112.829475,959.873230 106.909561,959.270691 
	C102.727859,958.845032 99.081642,959.083557 95.175072,961.759155 
	C92.035225,963.909607 87.364296,964.608093 83.376610,964.596680 
	C68.801697,964.555054 54.229443,963.766479 39.653732,963.682007 
	C36.122547,963.661560 32.598083,965.334900 29.042046,966.096375 
	C23.444899,967.294922 18.107191,967.711975 12.710156,964.431030 
	C9.559290,962.515503 5.436020,962.199524 1.375113,961.081909 
	C1.000000,940.979126 1.000000,920.958191 1.000000,900.468628 
z"/>
<path fill="#55A959" opacity="1.000000" stroke="none" 
	d="
M1.000000,436.000000 
	C1.000000,418.312439 1.000000,400.624878 1.445470,382.468445 
	C5.753114,382.726288 9.588870,383.707550 13.484499,384.111816 
	C17.839174,384.563690 22.289574,384.940277 26.623447,384.539673 
	C32.583698,383.988739 38.134117,381.535004 44.499111,384.542755 
	C48.153927,386.269775 53.200989,385.028687 57.619648,385.174011 
	C59.004978,385.219513 60.396271,385.358276 61.764698,385.579102 
	C63.814144,385.909882 65.908218,386.873291 67.872284,386.638580 
	C72.237419,386.116852 77.221764,387.742493 80.709930,383.374207 
	C81.111565,382.871216 82.608795,383.197723 83.596657,383.215790 
	C89.018219,383.314728 94.445435,383.327087 99.856590,383.625275 
	C101.311043,383.705414 102.700760,384.723694 104.147781,385.232971 
	C106.150963,385.937958 108.164413,387.077728 110.201164,387.141113 
	C117.986938,387.383453 125.422478,381.801666 133.508270,385.701202 
	C134.109085,385.990967 135.110031,385.422607 135.930801,385.289062 
	C145.907654,383.665497 155.361923,379.241882 166.046463,381.375580 
	C172.459259,382.656219 179.296799,381.660187 185.912094,382.129395 
	C190.312180,382.441467 194.645813,383.611786 199.032013,384.238098 
	C200.751312,384.483582 202.662460,384.716675 204.264053,384.227661 
	C211.720505,381.951263 218.933975,379.605438 227.035736,382.069641 
	C231.791870,383.516266 237.081009,383.197876 242.126343,383.713074 
	C243.885666,383.892731 245.636841,384.165924 247.384842,384.440247 
	C254.072220,385.489685 260.737793,386.704437 267.448639,387.569183 
	C272.508301,388.221161 277.699554,385.318726 282.802063,388.212708 
	C283.835022,388.798584 285.670807,387.808319 287.132904,387.826691 
	C292.841980,387.898346 298.552948,388.007904 304.256348,388.259155 
	C306.947418,388.377686 309.714600,389.439209 312.286713,389.039703 
	C317.976471,388.155975 323.524933,386.382324 329.207397,385.424927 
	C333.386108,384.720856 337.682587,384.670074 341.932983,384.453125 
	C344.803101,384.306610 347.949829,383.616699 350.505615,384.508575 
	C355.919739,386.398041 360.841949,384.952362 366.095032,384.123596 
	C371.520630,383.267609 377.169159,383.445892 382.695801,383.700287 
	C390.421387,384.055878 398.137695,385.505798 405.832733,385.337250 
	C411.518066,385.212708 417.118591,382.811340 422.838654,382.232544 
	C428.626862,381.646881 434.518738,382.165131 440.359711,382.003204 
	C449.516968,381.749420 458.629425,384.379547 467.851105,382.154449 
	C470.138397,381.602600 472.784973,382.766815 475.232727,382.611542 
	C483.656036,382.077179 492.119446,380.432068 500.219666,384.427490 
	C500.914490,384.770203 501.864746,384.816254 502.655823,384.706879 
	C508.058655,383.959747 513.426331,382.762024 518.850891,382.407715 
	C532.004272,381.548615 545.185608,381.126343 558.349426,380.414185 
	C564.573608,380.077454 570.783569,379.479553 577.000000,379.000000 
	C577.000000,398.354218 577.000000,417.708466 576.532288,437.531494 
	C567.606140,437.886261 559.147766,437.759735 550.689148,437.661041 
	C537.885193,437.511688 525.080994,437.301544 512.276672,437.279480 
	C506.469757,437.269470 500.601440,438.281555 494.866425,437.731201 
	C478.662018,436.176208 462.719635,437.547363 446.789703,440.434723 
	C442.951996,441.130341 438.892700,441.273743 435.009583,440.899780 
	C428.267426,440.250427 421.612518,438.518585 414.868164,438.107117 
	C402.922974,437.378326 390.937408,437.322327 378.970184,436.939545 
	C370.362488,436.664215 361.751129,436.426422 353.152466,435.965912 
	C345.731171,435.568451 338.330963,434.784088 330.910645,434.358887 
	C326.793304,434.122955 322.644684,434.086304 318.526489,434.289642 
	C311.626709,434.630310 304.745667,435.356537 297.845490,435.679626 
	C294.056519,435.857025 290.237213,435.345306 286.444244,435.486084 
	C275.318756,435.898987 264.202606,436.571869 253.076126,436.943176 
	C249.947098,437.047607 246.784988,436.148529 243.655319,436.248718 
	C228.561996,436.731903 213.478882,437.659698 198.383530,437.908966 
	C188.443573,438.073120 178.488586,437.084961 168.541138,437.101135 
	C157.118286,437.119690 145.697372,437.903137 134.273758,437.956818 
	C105.673027,438.091278 77.071213,438.013489 48.469856,437.989136 
	C43.670879,437.985046 38.867001,437.931488 34.074150,437.710693 
	C23.046568,437.202637 12.024377,436.577606 1.000000,436.000000 
z"/>
<path fill="#90C450" opacity="1.000000" stroke="none" 
	d="
M1.000000,139.468658 
	C13.650427,138.139236 26.309155,134.723694 38.936848,139.552444 
	C40.767967,140.252655 43.181370,139.579865 45.299759,139.327698 
	C46.771152,139.152542 48.222988,138.683182 49.641441,138.217087 
	C54.330585,136.676331 57.279507,143.150604 63.065292,140.325851 
	C66.653633,138.573944 72.227974,141.298615 76.898567,141.225723 
	C80.651855,141.167160 84.357773,139.604294 88.134743,139.263611 
	C103.181946,137.906357 118.231216,136.223114 133.314423,135.736801 
	C143.347198,135.413315 153.431168,137.090057 163.507202,137.524429 
	C168.628586,137.745224 173.781525,137.140472 178.922791,137.011078 
	C192.978149,136.657272 207.048782,135.828552 221.086807,136.197693 
	C233.146042,136.514816 245.166458,138.250107 257.209808,139.291397 
	C258.981934,139.444626 260.785858,139.199951 262.575378,139.188583 
	C265.190094,139.171967 267.847321,138.905106 270.410828,139.272491 
	C275.197266,139.958435 279.897186,141.319626 284.693878,141.840469 
	C288.751160,142.281006 292.894226,141.931259 297.328705,141.931259 
	C297.098999,140.287476 296.883942,138.748383 296.523132,136.166428 
	C303.944580,139.329834 311.419678,134.584747 318.398132,138.635101 
	C319.463745,139.253616 321.455139,138.942932 322.740875,138.402176 
	C328.611877,135.932907 334.068390,135.484131 339.303497,140.052505 
	C340.088287,140.737320 342.293518,140.115723 343.702545,139.664276 
	C344.872833,139.289337 346.592468,137.480225 346.783844,137.661682 
	C351.023560,141.681442 356.107147,138.892120 360.708588,139.397842 
	C365.585175,139.933807 370.713806,140.138550 375.484985,139.212967 
	C382.672180,137.818695 389.258911,138.992432 395.903961,141.392838 
	C401.710907,143.490479 407.176788,145.019623 413.338531,141.003571 
	C416.613342,138.869125 421.616516,139.329407 425.859100,138.765869 
	C427.486206,138.549759 429.383759,139.259460 430.790649,138.670166 
	C442.630554,133.710876 454.579468,137.611832 466.470764,138.058945 
	C467.849670,138.110794 469.584473,138.641098 470.477325,139.587921 
	C472.284424,141.504364 473.678833,142.220612 475.870972,140.147903 
	C476.480072,139.572037 477.966339,139.803024 479.038940,139.863312 
	C481.298615,139.990295 483.800781,139.692078 485.754791,140.568558 
	C489.989563,142.468018 493.182281,139.259308 496.852173,139.016830 
	C507.735596,138.297791 518.654541,138.133392 529.549622,137.561508 
	C532.465759,137.408447 535.364929,136.066147 538.238342,136.173035 
	C542.324707,136.325027 546.375549,137.802612 550.449707,137.840485 
	C559.025330,137.920242 567.606384,137.432114 576.592590,137.088516 
	C577.000000,155.020889 577.000000,173.041794 576.563354,191.530609 
	C572.167419,191.944275 568.207275,191.809784 564.249084,191.852829 
	C556.462830,191.937469 548.670471,192.399612 540.893494,192.201843 
	C527.126587,191.851761 513.372559,191.015472 499.606476,190.609177 
	C493.951050,190.442291 488.583313,190.941223 482.874084,188.526123 
	C477.820953,186.388550 471.547028,187.131668 465.809631,186.631149 
	C465.510773,186.605103 465.197845,186.889709 464.876465,186.950851 
	C456.000458,188.639496 447.174805,190.747787 438.225220,191.836609 
	C432.861816,192.489090 427.302063,191.315399 421.834381,191.366699 
	C410.226654,191.475586 398.616577,191.719360 387.016663,192.153885 
	C377.457306,192.511963 368.065186,189.990952 358.249634,192.478180 
	C351.075836,194.296021 343.085327,193.397324 335.501801,192.962082 
	C326.255127,192.431381 317.051636,191.134216 307.833160,190.134384 
	C304.268433,189.747757 300.697174,189.371094 297.159088,188.802200 
	C293.256042,188.174637 289.100739,186.055618 285.564606,186.850891 
	C278.439240,188.453354 271.562531,189.586578 264.149170,189.197464 
	C254.769318,188.705109 245.306946,189.523132 235.892639,190.014999 
	C224.299973,190.620682 212.875351,188.253098 201.256409,188.478409 
	C193.765091,188.623672 186.252777,185.424026 178.656235,188.498688 
	C177.950867,188.784180 176.822510,187.916107 175.864059,187.702469 
	C169.822021,186.355667 164.306915,182.927277 157.644287,183.996170 
	C146.865799,185.725357 136.051285,187.485199 125.181908,188.327606 
	C111.847168,189.361115 98.432571,189.978851 85.067543,189.777496 
	C76.989738,189.655792 68.966324,187.383408 60.869171,186.565155 
	C55.607769,186.033447 50.254295,186.241623 44.948074,186.368790 
	C38.552387,186.522095 32.116901,187.561813 25.782404,187.090942 
	C17.433308,186.470352 9.136495,183.796921 1.000000,188.000000 
	C1.000000,171.979111 1.000000,155.958206 1.000000,139.468658 
z"/>
<path fill="#49A45A" opacity="1.000000" stroke="none" 
	d="
M1.000000,436.468658 
	C12.024377,436.577606 23.046568,437.202637 34.074150,437.710693 
	C38.867001,437.931488 43.670879,437.985046 48.469856,437.989136 
	C77.071213,438.013489 105.673027,438.091278 134.273758,437.956818 
	C145.697372,437.903137 157.118286,437.119690 168.541138,437.101135 
	C178.488586,437.084961 188.443573,438.073120 198.383530,437.908966 
	C213.478882,437.659698 228.561996,436.731903 243.655319,436.248718 
	C246.784988,436.148529 249.947098,437.047607 253.076126,436.943176 
	C264.202606,436.571869 275.318756,435.898987 286.444244,435.486084 
	C290.237213,435.345306 294.056519,435.857025 297.845490,435.679626 
	C304.745667,435.356537 311.626709,434.630310 318.526489,434.289642 
	C322.644684,434.086304 326.793304,434.122955 330.910645,434.358887 
	C338.330963,434.784088 345.731171,435.568451 353.152466,435.965912 
	C361.751129,436.426422 370.362488,436.664215 378.970184,436.939545 
	C390.937408,437.322327 402.922974,437.378326 414.868164,438.107117 
	C421.612518,438.518585 428.267426,440.250427 435.009583,440.899780 
	C438.892700,441.273743 442.951996,441.130341 446.789703,440.434723 
	C462.719635,437.547363 478.662018,436.176208 494.866425,437.731201 
	C500.601440,438.281555 506.469757,437.269470 512.276672,437.279480 
	C525.080994,437.301544 537.885193,437.511688 550.689148,437.661041 
	C559.147766,437.759735 567.606140,437.886261 576.532288,438.000183 
	C577.000000,454.687561 577.000000,471.375122 577.000000,488.531372 
	C570.630127,489.680908 564.265076,490.826172 557.888916,490.891785 
	C553.022217,490.941833 548.155640,489.499237 543.263916,488.940674 
	C532.761963,487.741516 522.256409,485.956299 511.728790,485.774658 
	C501.251465,485.593964 490.753448,487.250092 480.247925,487.756683 
	C475.983612,487.962341 471.678589,487.193390 467.386383,486.986115 
	C462.629913,486.756378 457.867340,486.646576 453.106476,486.519196 
	C451.953369,486.488373 450.679016,486.934326 449.660126,486.582520 
	C441.424561,483.739136 432.988647,484.992950 424.567871,484.874695 
	C411.653870,484.693329 398.756989,483.526550 385.842834,483.048828 
	C374.622772,482.633759 363.387268,482.383179 352.161530,482.463562 
	C344.748505,482.516663 337.345337,483.524536 329.929230,483.669006 
	C321.094574,483.841187 312.232117,483.159729 303.417236,483.584747 
	C297.072205,483.890686 290.788971,485.426788 284.470886,486.365173 
	C281.611450,486.789886 278.614594,487.786987 275.889771,487.314728 
	C269.841339,486.266479 264.121613,485.436340 257.811768,486.812836 
	C247.190125,489.129913 236.315781,490.425690 225.485321,491.549438 
	C222.874405,491.820343 220.018997,489.735168 217.174576,488.696442 
	C210.340210,495.719025 201.862640,492.098480 194.033112,491.285889 
	C187.817062,490.640778 181.797821,488.250305 175.617233,487.000427 
	C174.161758,486.706116 172.057999,487.467407 170.867493,488.472015 
	C168.567169,490.413025 166.651321,490.544006 163.655945,489.818420 
	C159.577759,488.830505 155.144897,489.363464 150.873199,489.098053 
	C147.929245,488.915131 144.935806,488.758331 142.084427,488.083252 
	C139.504517,487.472473 137.424866,485.277588 134.728958,488.703522 
	C133.816864,489.862610 129.857651,488.544006 127.288315,488.494202 
	C120.299026,488.358673 113.174919,489.104340 106.355499,487.978607 
	C99.456650,486.839813 92.309341,489.785950 85.447563,485.977661 
	C83.995544,485.171783 80.074356,488.814789 76.052902,491.116516 
	C74.233063,490.227295 70.922623,488.564667 67.574013,486.982880 
	C60.217468,483.507751 52.490849,485.456512 44.991016,485.907043 
	C37.060364,486.383453 29.226820,488.518311 21.297287,488.954193 
	C17.145891,489.182373 12.882197,487.308929 8.664219,486.408051 
	C6.388492,485.921997 4.102225,485.485321 1.410356,485.013184 
	C1.000000,468.979095 1.000000,452.958221 1.000000,436.468658 
z"/>
<path fill="#64B158" opacity="1.000000" stroke="none" 
	d="
M577.000000,378.531342 
	C570.783569,379.479553 564.573608,380.077454 558.349426,380.414185 
	C545.185608,381.126343 532.004272,381.548615 518.850891,382.407715 
	C513.426331,382.762024 508.058655,383.959747 502.655823,384.706879 
	C501.864746,384.816254 500.914490,384.770203 500.219666,384.427490 
	C492.119446,380.432068 483.656036,382.077179 475.232727,382.611542 
	C472.784973,382.766815 470.138397,381.602600 467.851105,382.154449 
	C458.629425,384.379547 449.516968,381.749420 440.359711,382.003204 
	C434.518738,382.165131 428.626862,381.646881 422.838654,382.232544 
	C417.118591,382.811340 411.518066,385.212708 405.832733,385.337250 
	C398.137695,385.505798 390.421387,384.055878 382.695801,383.700287 
	C377.169159,383.445892 371.520630,383.267609 366.095032,384.123596 
	C360.841949,384.952362 355.919739,386.398041 350.505615,384.508575 
	C347.949829,383.616699 344.803101,384.306610 341.932983,384.453125 
	C337.682587,384.670074 333.386108,384.720856 329.207397,385.424927 
	C323.524933,386.382324 317.976471,388.155975 312.286713,389.039703 
	C309.714600,389.439209 306.947418,388.377686 304.256348,388.259155 
	C298.552948,388.007904 292.841980,387.898346 287.132904,387.826691 
	C285.670807,387.808319 283.835022,388.798584 282.802063,388.212708 
	C277.699554,385.318726 272.508301,388.221161 267.448639,387.569183 
	C260.737793,386.704437 254.072220,385.489685 247.384842,384.440247 
	C245.636841,384.165924 243.885666,383.892731 242.126343,383.713074 
	C237.081009,383.197876 231.791870,383.516266 227.035736,382.069641 
	C218.933975,379.605438 211.720505,381.951263 204.264053,384.227661 
	C202.662460,384.716675 200.751312,384.483582 199.032013,384.238098 
	C194.645813,383.611786 190.312180,382.441467 185.912094,382.129395 
	C179.296799,381.660187 172.459259,382.656219 166.046463,381.375580 
	C155.361923,379.241882 145.907654,383.665497 135.930801,385.289062 
	C135.110031,385.422607 134.109085,385.990967 133.508270,385.701202 
	C125.422478,381.801666 117.986938,387.383453 110.201164,387.141113 
	C108.164413,387.077728 106.150963,385.937958 104.147781,385.232971 
	C102.700760,384.723694 101.311043,383.705414 99.856590,383.625275 
	C94.445435,383.327087 89.018219,383.314728 83.596657,383.215790 
	C82.608795,383.197723 81.111565,382.871216 80.709930,383.374207 
	C77.221764,387.742493 72.237419,386.116852 67.872284,386.638580 
	C65.908218,386.873291 63.814144,385.909882 61.764698,385.579102 
	C60.396271,385.358276 59.004978,385.219513 57.619648,385.174011 
	C53.200989,385.028687 48.153927,386.269775 44.499111,384.542755 
	C38.134117,381.535004 32.583698,383.988739 26.623447,384.539673 
	C22.289574,384.940277 17.839174,384.563690 13.484499,384.111816 
	C9.588870,383.707550 5.753114,382.726288 1.445470,381.999817 
	C1.000000,367.979095 1.000000,353.958221 1.000000,339.468628 
	C9.304492,339.333221 17.609297,339.936279 25.913391,339.926636 
	C34.884678,339.916229 43.855564,339.063599 52.826149,339.072174 
	C62.766438,339.081665 72.707512,339.941925 82.645828,339.896881 
	C93.614326,339.847198 104.578438,339.130066 115.547905,338.829926 
	C119.512794,338.721436 123.487305,339.019775 127.458115,339.055206 
	C130.437073,339.081818 133.551346,339.534790 136.373047,338.846069 
	C147.532104,336.122345 158.471756,339.351990 169.508820,339.562988 
	C180.275787,339.768829 191.050690,339.578247 201.821869,339.517151 
	C202.974899,339.510620 204.127029,339.057465 205.278275,339.063324 
	C218.735977,339.131531 232.211990,339.725769 245.645233,339.204224 
	C256.884308,338.767883 268.089264,337.172791 279.275726,335.814148 
	C283.049774,335.355804 286.686829,333.830994 290.456635,333.244080 
	C291.833466,333.029694 293.447571,334.040283 294.893860,334.636597 
	C297.471771,335.699493 299.938171,337.601898 302.570221,337.840637 
	C307.394592,338.278229 312.129120,338.193604 317.178894,337.080536 
	C325.728882,335.195953 334.783997,335.633179 343.620880,335.010773 
	C350.744019,334.509094 357.850403,333.701691 364.980011,333.386261 
	C368.897614,333.212952 372.856506,334.031494 376.779449,333.896820 
	C378.675751,333.831787 380.532013,332.599548 381.653809,332.178345 
	C384.427704,332.878662 386.795074,333.622589 389.217987,334.056122 
	C393.624634,334.844666 398.065338,335.441803 402.488556,336.139771 
	C402.969147,336.215607 403.424255,336.546478 403.897583,336.561890 
	C420.262360,337.095551 436.637390,337.413727 452.988312,338.221375 
	C458.801056,338.508514 464.226410,338.520844 468.994232,334.665924 
	C469.451385,334.296265 470.269409,334.226807 470.910522,334.252380 
	C481.475494,334.674072 492.002838,335.430725 502.428436,337.351440 
	C517.090027,340.052582 531.802673,339.409485 546.591309,338.317230 
	C556.369507,337.595032 566.235840,338.064240 576.531372,338.000000 
	C577.000000,351.354218 577.000000,364.708466 577.000000,378.531342 
z"/>
<path fill="#7CBB54" opacity="1.000000" stroke="none" 
	d="
M577.000000,281.531342 
	C569.896118,282.769318 562.803589,283.679871 555.684021,284.255066 
	C551.405518,284.600708 546.966309,285.043152 542.826843,284.251801 
	C540.289490,283.766754 537.800720,281.358582 535.970337,279.229248 
	C533.105286,275.896149 531.400208,275.840820 528.958252,280.403625 
	C527.337952,274.615173 522.606323,276.161011 519.079773,276.194946 
	C509.840973,276.283813 500.609924,277.120483 491.374390,277.633942 
	C489.389191,277.744324 487.371521,277.565918 485.416870,277.850555 
	C483.276672,278.162262 481.176208,278.800598 479.087311,279.397614 
	C476.299255,280.194458 473.567291,281.692657 470.761383,281.823944 
	C463.363159,282.170166 455.937988,281.941101 448.834473,280.921478 
	C447.414368,279.692902 445.274353,277.137909 444.692444,277.453735 
	C441.240845,279.326996 435.498444,273.893188 433.687958,280.905426 
	C433.466278,281.764099 431.424286,282.641815 430.204773,282.672516 
	C423.499146,282.841248 416.844330,283.431458 410.198700,284.033478 
	C401.972443,284.778656 393.373077,282.700897 384.893585,284.540009 
	C384.084015,284.715637 383.028259,283.211945 381.964691,282.884186 
	C380.217194,282.345673 378.051575,281.340546 376.618500,281.916382 
	C369.926605,284.605560 364.594299,282.325806 359.404144,278.296143 
	C358.342743,277.472076 356.696655,277.141907 355.294525,277.067810 
	C351.971130,276.892212 348.632233,277.026245 345.299927,276.998505 
	C342.438904,276.974731 340.570007,278.557831 338.192291,279.947540 
	C333.826630,282.499146 328.054199,283.017090 322.786896,283.505371 
	C319.877960,283.775024 316.357727,283.060333 315.459473,278.924194 
	C315.307556,278.224609 314.012238,277.341797 313.194489,277.285950 
	C305.979950,276.793213 298.757568,276.332336 291.530090,276.138306 
	C286.098419,275.992523 280.656097,276.280426 275.218079,276.322784 
	C271.897247,276.348663 268.574005,276.193939 265.254761,276.262421 
	C256.665436,276.439636 248.075363,276.941528 239.489929,276.859375 
	C228.241867,276.751801 217.000214,276.084869 205.751770,275.881836 
	C190.371780,275.604218 174.987045,277.432159 159.588776,275.198761 
	C155.121429,274.550812 150.382812,275.975952 145.757263,276.149017 
	C142.336533,276.277008 138.892120,275.714447 135.467545,275.806213 
	C117.051033,276.299591 98.640358,277.118774 80.221497,277.365845 
	C72.143700,277.474213 64.050659,276.082123 55.965599,276.093994 
	C41.327766,276.115479 26.688932,276.622925 12.055833,277.093018 
	C10.392256,277.146454 8.758217,278.248688 7.118671,278.885681 
	C5.341226,279.576294 3.573354,280.291534 1.400652,280.997986 
	C1.000000,264.645782 1.000000,248.291550 1.466991,231.468658 
	C8.176052,231.605804 14.417542,232.217682 20.660439,232.814865 
	C23.798485,233.115036 27.017258,233.970596 30.063438,233.561539 
	C38.208809,232.467728 46.006641,231.731400 54.486462,232.999039 
	C66.246742,234.757065 78.271080,229.907288 90.445618,232.067978 
	C95.633804,232.988770 101.222328,231.786026 106.348648,232.871719 
	C109.248207,233.485809 111.092598,233.864258 113.522377,231.983093 
	C114.826843,230.973175 117.523750,230.174210 118.698517,230.845123 
	C125.679626,234.832123 133.152924,233.913574 140.593582,233.808517 
	C143.208664,233.771606 145.826920,234.013535 148.444672,234.098099 
	C154.404541,234.290604 160.369553,234.698624 166.324036,234.583359 
	C172.921448,234.455627 179.459991,231.156052 186.150681,234.629501 
	C187.416397,235.286606 189.395599,234.592712 191.043320,234.486984 
	C203.805267,233.668152 216.560760,232.716705 229.332581,232.106720 
	C232.364502,231.961929 235.466751,233.409912 238.507675,233.302780 
	C242.143677,233.174683 245.728195,231.859802 249.372330,231.615479 
	C253.455078,231.341751 257.581940,231.810425 261.685150,231.730133 
	C264.832275,231.668564 267.995850,230.875992 271.111755,231.066956 
	C283.512939,231.826935 295.892365,232.940399 308.292603,233.719223 
	C313.072998,234.019455 317.921539,234.143173 322.679077,233.701614 
	C331.485229,232.884338 340.017822,230.041840 349.163116,231.871719 
	C355.230743,233.085770 361.634766,232.528824 367.862610,233.063263 
	C371.960876,233.414963 376.001404,234.735443 380.089233,234.848709 
	C387.681274,235.059128 395.298920,234.895599 402.885956,234.502228 
	C406.591125,234.310135 410.260254,232.640503 413.930298,232.694244 
	C427.337921,232.890533 440.741943,233.466187 454.140381,234.056290 
	C456.922028,234.178802 459.689056,235.459900 462.437042,235.374878 
	C473.034515,235.047012 483.616638,234.223495 494.214081,233.892639 
	C502.624847,233.630051 511.049591,233.809464 519.468140,233.805954 
	C526.747925,233.802933 534.046387,234.153717 541.303345,233.750351 
	C553.216370,233.088165 565.102539,231.942047 577.000000,231.000000 
	C577.000000,247.687561 577.000000,264.375122 577.000000,281.531342 
z"/>
<path fill="#84BF53" opacity="1.000000" stroke="none" 
	d="
M577.000000,230.531342 
	C565.102539,231.942047 553.216370,233.088165 541.303345,233.750351 
	C534.046387,234.153717 526.747925,233.802933 519.468140,233.805954 
	C511.049591,233.809464 502.624847,233.630051 494.214081,233.892639 
	C483.616638,234.223495 473.034515,235.047012 462.437042,235.374878 
	C459.689056,235.459900 456.922028,234.178802 454.140381,234.056290 
	C440.741943,233.466187 427.337921,232.890533 413.930298,232.694244 
	C410.260254,232.640503 406.591125,234.310135 402.885956,234.502228 
	C395.298920,234.895599 387.681274,235.059128 380.089233,234.848709 
	C376.001404,234.735443 371.960876,233.414963 367.862610,233.063263 
	C361.634766,232.528824 355.230743,233.085770 349.163116,231.871719 
	C340.017822,230.041840 331.485229,232.884338 322.679077,233.701614 
	C317.921539,234.143173 313.072998,234.019455 308.292603,233.719223 
	C295.892365,232.940399 283.512939,231.826935 271.111755,231.066956 
	C267.995850,230.875992 264.832275,231.668564 261.685150,231.730133 
	C257.581940,231.810425 253.455078,231.341751 249.372330,231.615479 
	C245.728195,231.859802 242.143677,233.174683 238.507675,233.302780 
	C235.466751,233.409912 232.364502,231.961929 229.332581,232.106720 
	C216.560760,232.716705 203.805267,233.668152 191.043320,234.486984 
	C189.395599,234.592712 187.416397,235.286606 186.150681,234.629501 
	C179.459991,231.156052 172.921448,234.455627 166.324036,234.583359 
	C160.369553,234.698624 154.404541,234.290604 148.444672,234.098099 
	C145.826920,234.013535 143.208664,233.771606 140.593582,233.808517 
	C133.152924,233.913574 125.679626,234.832123 118.698517,230.845123 
	C117.523750,230.174210 114.826843,230.973175 113.522377,231.983093 
	C111.092598,233.864258 109.248207,233.485809 106.348648,232.871719 
	C101.222328,231.786026 95.633804,232.988770 90.445618,232.067978 
	C78.271080,229.907288 66.246742,234.757065 54.486462,232.999039 
	C46.006641,231.731400 38.208809,232.467728 30.063438,233.561539 
	C27.017258,233.970596 23.798485,233.115036 20.660439,232.814865 
	C14.417542,232.217682 8.176052,231.605804 1.466991,231.000000 
	C1.000000,216.979111 1.000000,202.958206 1.000000,188.468658 
	C9.136495,183.796921 17.433308,186.470352 25.782404,187.090942 
	C32.116901,187.561813 38.552387,186.522095 44.948074,186.368790 
	C50.254295,186.241623 55.607769,186.033447 60.869171,186.565155 
	C68.966324,187.383408 76.989738,189.655792 85.067543,189.777496 
	C98.432571,189.978851 111.847168,189.361115 125.181908,188.327606 
	C136.051285,187.485199 146.865799,185.725357 157.644287,183.996170 
	C164.306915,182.927277 169.822021,186.355667 175.864059,187.702469 
	C176.822510,187.916107 177.950867,188.784180 178.656235,188.498688 
	C186.252777,185.424026 193.765091,188.623672 201.256409,188.478409 
	C212.875351,188.253098 224.299973,190.620682 235.892639,190.014999 
	C245.306946,189.523132 254.769318,188.705109 264.149170,189.197464 
	C271.562531,189.586578 278.439240,188.453354 285.564606,186.850891 
	C289.100739,186.055618 293.256042,188.174637 297.159088,188.802200 
	C300.697174,189.371094 304.268433,189.747757 307.833160,190.134384 
	C317.051636,191.134216 326.255127,192.431381 335.501801,192.962082 
	C343.085327,193.397324 351.075836,194.296021 358.249634,192.478180 
	C368.065186,189.990952 377.457306,192.511963 387.016663,192.153885 
	C398.616577,191.719360 410.226654,191.475586 421.834381,191.366699 
	C427.302063,191.315399 432.861816,192.489090 438.225220,191.836609 
	C447.174805,190.747787 456.000458,188.639496 464.876465,186.950851 
	C465.197845,186.889709 465.510773,186.605103 465.809631,186.631149 
	C471.547028,187.131668 477.820953,186.388550 482.874084,188.526123 
	C488.583313,190.941223 493.951050,190.442291 499.606476,190.609177 
	C513.372559,191.015472 527.126587,191.851761 540.893494,192.201843 
	C548.670471,192.399612 556.462830,191.937469 564.249084,191.852829 
	C568.207275,191.809784 572.167419,191.944275 576.563354,191.999268 
	C577.000000,204.687561 577.000000,217.375122 577.000000,230.531342 
z"/>
</svg>