<?xml version="1.0" encoding="UTF-8"?>
<svg version="1.1" xmlns="http://www.w3.org/2000/svg" width="500" height="500">
<path d="M0 0 C-0.32470303 18.89181266 -6.50414757 38.26097905 -20 52 C-20.66 52 -21.32 52 -22 52 C-22 52.66 -22 53.32 -22 54 C-22.66 54 -23.32 54 -24 54 C-24 54.66 -24 55.32 -24 56 C-24.66 56 -25.32 56 -26 56 C-26 56.66 -26 57.32 -26 58 C-27.65 58.66 -29.3 59.32 -31 60 C-31 60.66 -31 61.32 -31 62 C-32.48120117 63.11328125 -32.48120117 63.11328125 -34.54296875 64.3125 C-35.65961914 64.96605469 -35.65961914 64.96605469 -36.79882812 65.6328125 C-37.58708984 66.08398438 -38.37535156 66.53515625 -39.1875 67 C-39.95642578 67.45117188 -40.72535156 67.90234375 -41.51757812 68.3671875 C-52.49305374 74.73578966 -52.49305374 74.73578966 -59.546875 72.87890625 C-71.38262762 68.63838979 -82.20755693 59.12455954 -88 48 C-90.89797144 41.01748615 -92.14841065 34.56894312 -92 27 C-83.27909993 26.31600784 -74.67892264 28.86232809 -67 33 C-67 33.66 -67 34.32 -67 35 C-66.21625 35.2475 -65.4325 35.495 -64.625 35.75 C-61.67682892 37.15389099 -61.0975223 38.00675737 -60 41 C-59.34 41 -58.68 41 -58 41 C-57.89558594 40.13761719 -57.79117188 39.27523437 -57.68359375 38.38671875 C-56.95477877 34.77596111 -55.75397357 32.07551381 -54.0625 28.8125 C-53.53785156 27.78769531 -53.01320312 26.76289063 -52.47265625 25.70703125 C-51 23 -51 23 -49 20 C-48.34 20 -47.68 20 -47 20 C-46.7525 19.38125 -46.505 18.7625 -46.25 18.125 C-44.79371361 15.64931313 -43.62187494 15.04874998 -41 14 C-41 13.34 -41 12.68 -41 12 C-30.74023133 4.73042569 -12.89213176 -4.40296392 0 0 Z M-31 21 C-31 22.32 -31 23.64 -31 25 C-32.57421875 26.74609375 -32.57421875 26.74609375 -34.6875 28.4375 C-35.41324219 29.03820312 -36.13898438 29.63890625 -36.88671875 30.2578125 C-37.58410156 30.83273438 -38.28148437 31.40765625 -39 32 C-40.77367272 33.60936575 -42.38066755 35.22885514 -44 37 C-44 37.66 -44 38.32 -44 39 C-44.66 39 -45.32 39 -46 39 C-49.61412011 43.53165836 -53.91626498 48.92692483 -54.078125 54.8671875 C-53.50514426 57.57026446 -53.50514426 57.57026446 -52 61 C-49.8126496 58.95565208 -48.26915038 56.9920343 -46.80859375 54.3828125 C-46.42123047 53.69316406 -46.03386719 53.00351562 -45.63476562 52.29296875 C-45.23966797 51.57753906 -44.84457031 50.86210937 -44.4375 50.125 C-44.03853516 49.41730469 -43.63957031 48.70960938 -43.22851562 47.98046875 C-41.22792471 44.39343262 -39.40468452 40.87237354 -38 37 C-37.34 37 -36.68 37 -36 37 C-34.41173778 35.28502228 -34.41173778 35.28502228 -32.875 33.125 C-32.33617187 32.40570313 -31.79734375 31.68640625 -31.2421875 30.9453125 C-29.82060368 29.10373994 -29.82060368 29.10373994 -30 27 C-29.34 27 -28.68 27 -28 27 C-28 26.34 -28 25.68 -28 25 C-26.35 25.66 -24.7 26.32 -23 27 C-21.74335022 24.09399739 -21 22.20395416 -21 19 C-26.58664846 18.39578469 -26.58664846 18.39578469 -31 21 Z M-63 53 C-63 53.99 -63 54.98 -63 56 C-62.34 56 -61.68 56 -61 56 C-60.9175 56.66 -60.835 57.32 -60.75 58 C-59.46497822 63.14008712 -56.92593596 67.61109606 -54 72 C-53.06619039 67.46859347 -53.06619039 67.46859347 -54 63 C-54.66 63 -55.32 63 -56 63 C-56.061875 62.46375 -56.12375 61.9275 -56.1875 61.375 C-57.38983135 57.86049298 -59.50523067 55.74424626 -62 53 C-62.33 53 -62.66 53 -63 53 Z " fill="#ABD053" transform="translate(179,213)"/>
<path d="M0 0 C2.97 0 5.94 0 9 0 C9.33 6.27 9.66 12.54 10 19 C10.33 18.34 10.66 17.68 11 17 C11.66 17 12.32 17 13 17 C13 16.34 13 15.68 13 15 C13.66 15 14.32 15 15 15 C15.66 13.68 16.32 12.36 17 11 C20.63 11 24.26 11 28 11 C26.47246003 14.05507993 25.19136095 16.44341223 23 19 C22.34 19 21.68 19 21 19 C21 19.66 21 20.32 21 21 C20.34 21 19.68 21 19 21 C19.3638131 25.97211232 20.92969741 28.69627663 23.94140625 32.484375 C25 34 25 34 25 36 C25.66 36 26.32 36 27 36 C27.33 36.66 27.66 37.32 28 38 C33.13429537 26.94151766 37.18050432 15.42988018 41.23828125 3.94140625 C42 2 42 2 43 1 C44.68608966 0.92794489 46.37500659 0.91613932 48.0625 0.9375 C48.98160156 0.94652344 49.90070313 0.95554688 50.84765625 0.96484375 C51.55792969 0.97644531 52.26820313 0.98804688 53 1 C56.80701309 10.6766154 60.55349364 20.35240826 63.95703125 30.1796875 C64.83900163 32.56464112 65.83547522 34.74624298 67 37 C67.6875 39.1875 67.6875 39.1875 68 41 C67 42 67 42 64.71484375 42.09765625 C63.79832031 42.08605469 62.88179688 42.07445312 61.9375 42.0625 C61.01839844 42.05347656 60.09929687 42.04445313 59.15234375 42.03515625 C58.44207031 42.02355469 57.73179687 42.01195312 57 42 C56.01 39.36 55.02 36.72 54 34 C49.71 34 45.42 34 41 34 C40.01 36.64 39.02 39.28 38 42 C34.72867393 42.08081043 31.45933579 42.14040709 28.1875 42.1875 C26.7943457 42.22520508 26.7943457 42.22520508 25.37304688 42.26367188 C24.48037109 42.27333984 23.58769531 42.28300781 22.66796875 42.29296875 C21.84578857 42.3086792 21.0236084 42.32438965 20.17651367 42.34057617 C18 42 18 42 16.20825195 40.66918945 C15 39 15 39 15 36 C14.34 36 13.68 36 13 36 C13 35.01 13 34.02 13 33 C12.01 32.67 11.02 32.34 10 32 C9.67 35.3 9.34 38.6 9 42 C6.03 42 3.06 42 0 42 C-1.09064087 37.63743654 -1.0271265 33.74077694 -0.87890625 29.296875 C-0.85529526 28.45908508 -0.83168427 27.62129517 -0.80735779 26.75811768 C-0.73093142 24.08856369 -0.64681692 21.41931528 -0.5625 18.75 C-0.50925825 16.93751483 -0.45651799 15.12501486 -0.40429688 13.3125 C-0.2753448 8.87480737 -0.13949826 4.43737313 0 0 Z M47 14 C46.47007308 15.45505358 45.9513211 16.91418127 45.4375 18.375 C45.14746094 19.18710938 44.85742188 19.99921875 44.55859375 20.8359375 C43.74026972 23.02767749 43.74026972 23.02767749 45 25 C46.65 24.67 48.3 24.34 50 24 C49.41825155 18.6913151 49.41825155 18.6913151 47 14 Z " fill="#B2D25A" transform="translate(278,231)"/>
<path d="M0 0 C0.97582031 0.00902344 1.95164062 0.01804688 2.95703125 0.02734375 C4.06111328 0.04474609 4.06111328 0.04474609 5.1875 0.0625 C4.5275 1.0525 3.8675 2.0425 3.1875 3.0625 C2.5275 3.0625 1.8675 3.0625 1.1875 3.0625 C1.1875 3.7225 1.1875 4.3825 1.1875 5.0625 C-0.51468367 6.55631291 -2.27572891 7.98347016 -4.0625 9.375 C-7.07515073 11.72215778 -9.5842678 13.76358395 -11.90625 16.8046875 C-13.8125 19.0625 -13.8125 19.0625 -15.953125 19.76953125 C-16.64921875 19.80433594 -17.3453125 19.83914062 -18.0625 19.875 C-19.3 19.936875 -20.5375 19.99875 -21.8125 20.0625 C-21.91111328 21.16078125 -21.91111328 21.16078125 -22.01171875 22.28125 C-23.05892104 25.91836236 -24.73612626 27.16003985 -27.625 29.5625 C-30.3943821 31.88599931 -32.76506833 34.00251537 -35.01171875 36.84375 C-35.60597656 37.5759375 -36.20023438 38.308125 -36.8125 39.0625 C-37.4725 39.0625 -38.1325 39.0625 -38.8125 39.0625 C-39.039375 39.7225 -39.26625 40.3825 -39.5 41.0625 C-40.63909614 43.66614833 -41.79130041 45.4210609 -43.4375 47.6875 C-46.65246432 52.60894098 -46.28325656 57.3715763 -45.8125 63.0625 C-46.8025 63.0625 -47.7925 63.0625 -48.8125 63.0625 C-49.369375 62.03125 -49.92625 61 -50.5 59.9375 C-53.7393881 54.30278971 -57.08503959 50.33533452 -62.8125 47.0625 C-62.8125 46.4025 -62.8125 45.7425 -62.8125 45.0625 C-63.369375 45.000625 -63.92625 44.93875 -64.5 44.875 C-67.10048752 43.9613152 -68.3939783 42.6475559 -70.25390625 40.66015625 C-72.92752659 37.91952788 -75.84962275 35.4531466 -78.7265625 32.9296875 C-80.48396006 31.35658631 -82.16646568 29.7504715 -83.8125 28.0625 C-82.1625 28.0625 -80.5125 28.0625 -78.8125 28.0625 C-78.8125 28.7225 -78.8125 29.3825 -78.8125 30.0625 C-77.25789063 30.13597656 -77.25789063 30.13597656 -75.671875 30.2109375 C-74.30205792 30.28599597 -72.93226752 30.36154247 -71.5625 30.4375 C-70.88058594 30.4684375 -70.19867188 30.499375 -69.49609375 30.53125 C-65.82510962 30.74509374 -62.94998384 31.07327055 -59.8125 33.0625 C-59.8125 33.7225 -59.8125 34.3825 -59.8125 35.0625 C-59.02875 35.31 -58.245 35.5575 -57.4375 35.8125 C-54.48932892 37.21639099 -53.9100223 38.06925737 -52.8125 41.0625 C-52.1525 41.0625 -51.4925 41.0625 -50.8125 41.0625 C-50.70808594 40.20011719 -50.60367188 39.33773437 -50.49609375 38.44921875 C-49.76727877 34.83846111 -48.56647357 32.13801381 -46.875 28.875 C-46.35035156 27.85019531 -45.82570312 26.82539063 -45.28515625 25.76953125 C-43.8125 23.0625 -43.8125 23.0625 -41.8125 20.0625 C-41.1525 20.0625 -40.4925 20.0625 -39.8125 20.0625 C-39.565 19.44375 -39.3175 18.825 -39.0625 18.1875 C-37.60621361 15.71181313 -36.43437494 15.11124998 -33.8125 14.0625 C-33.8125 13.4025 -33.8125 12.7425 -33.8125 12.0625 C-23.87861121 5.02382836 -12.29644566 -0.14814995 0 0 Z " fill="#206042" transform="translate(171.8125,212.9375)"/>
<path d="M0 0 C2.97 0 5.94 0 9 0 C9.33 6.27 9.66 12.54 10 19 C10.33 18.34 10.66 17.68 11 17 C11.66 17 12.32 17 13 17 C13 16.34 13 15.68 13 15 C13.66 15 14.32 15 15 15 C15.66 13.68 16.32 12.36 17 11 C20.63 11 24.26 11 28 11 C26.47246003 14.05507993 25.19136095 16.44341223 23 19 C22.34 19 21.68 19 21 19 C21 19.66 21 20.32 21 21 C20.34 21 19.68 21 19 21 C19.3638131 25.97211232 20.92969741 28.69627663 23.94140625 32.484375 C25 34 25 34 25 36 C25.66 36 26.32 36 27 36 C27.33 37.98 27.66 39.96 28 42 C26.39667209 42.08121924 24.79215974 42.13929134 23.1875 42.1875 C21.84751953 42.23970703 21.84751953 42.23970703 20.48046875 42.29296875 C18 42 18 42 16.17578125 40.67578125 C15 39 15 39 15 36 C14.34 36 13.68 36 13 36 C13 35.01 13 34.02 13 33 C12.01 32.67 11.02 32.34 10 32 C9.67 35.3 9.34 38.6 9 42 C6.03 42 3.06 42 0 42 C-1.09064087 37.63743654 -1.0271265 33.74077694 -0.87890625 29.296875 C-0.85529526 28.45908508 -0.83168427 27.62129517 -0.80735779 26.75811768 C-0.73093142 24.08856369 -0.64681692 21.41931528 -0.5625 18.75 C-0.50925825 16.93751483 -0.45651799 15.12501486 -0.40429688 13.3125 C-0.2753448 8.87480737 -0.13949826 4.43737313 0 0 Z " fill="#1F6246" transform="translate(278,231)"/>
<path d="M0 0 C2.80586466 2.38073365 4.7970216 4.37691561 5.51074219 8.06835938 C5.54329102 8.90173828 5.57583984 9.73511719 5.609375 10.59375 C5.64933594 11.51027344 5.68929687 12.42679688 5.73046875 13.37109375 C5.75753906 14.32113281 5.78460938 15.27117187 5.8125 16.25 C5.85503906 17.20003906 5.89757812 18.15007812 5.94140625 19.12890625 C6.10191101 23.35553166 6.09982343 26.60070629 5.0625 30.75 C2.0925 30.75 -0.8775 30.75 -3.9375 30.75 C-3.9375 30.09 -3.9375 29.43 -3.9375 28.75 C-4.9275 29.41 -5.9175 30.07 -6.9375 30.75 C-11.86022665 31.39634274 -16.43531063 31.82299241 -20.5625 28.875 C-22.90669254 25.25215698 -23.19796258 23.09104297 -22.9375 18.75 C-22.06712057 15.70367199 -21.12548831 14.88014576 -18.5 13.0625 C-13.69244167 11.2912943 -9.02594332 11.01257092 -3.9375 10.75 C-3.9375 9.76 -3.9375 8.77 -3.9375 7.75 C-6.9075 7.75 -9.8775 7.75 -12.9375 7.75 C-12.9375 8.41 -12.9375 9.07 -12.9375 9.75 C-15.9075 9.75 -18.8775 9.75 -21.9375 9.75 C-21.52315093 4.91592748 -19.55956046 2.85462326 -15.9375 -0.25 C-10.71795248 -1.98984917 -5.0924322 -2.16699243 0 0 Z M-11.9375 18.75 C-11.97813832 20.41617115 -11.980221 22.08388095 -11.9375 23.75 C-7.45866304 23.30296014 -7.45866304 23.30296014 -3.9375 20.75 C-3.9375 19.76 -3.9375 18.77 -3.9375 17.75 C-8.26070086 17.24633499 -8.26070086 17.24633499 -11.9375 18.75 Z " fill="#26684D" transform="translate(236.9375,242.25)"/>
<path d="M0 0 C4.31622083 2.77471339 5.93460719 4.82501203 7.625 9.6875 C8.58793789 16.46860998 7.9244867 21.47713032 4.01171875 27.12890625 C0.67215966 30.88238253 -2.56252991 31.28646083 -7.375 31.6875 C-12.9502018 31.58794282 -15.97590682 30.08762495 -19.9296875 26.35546875 C-23.32547706 22.43654405 -23.84881599 17.84673203 -23.68359375 12.7734375 C-23.01500579 8.25412144 -21.24620864 4.41327792 -17.8671875 1.296875 C-12.21492887 -2.43624465 -6.17986552 -2.40328103 0 0 Z M-11.0625 8.0625 C-13.85760747 11.52310925 -13.82044325 14.30730802 -13.375 18.6875 C-11.02081624 21.62723281 -11.02081624 21.62723281 -8.375 23.6875 C-5.28657003 22.7934808 -3.74100955 22.26978792 -2 19.5 C-1.19820271 15.8919122 -1.5123299 13.27089889 -2.375 9.6875 C-3.54384106 7.68265224 -3.54384106 7.68265224 -5.375 6.6875 C-9.2209699 6.2663847 -9.2209699 6.2663847 -11.0625 8.0625 Z " fill="#B3D15E" transform="translate(384.375,242.3125)"/>
<path d="M0 0 C6.57315478 -0.36517527 11.79485526 0.86380263 18 3 C18 3.33 18 3.66 18 4 C16.37509046 4.02698189 14.75005367 4.04638757 13.125 4.0625 C12.22007813 4.07410156 11.31515625 4.08570313 10.3828125 4.09765625 C8 4 8 4 6 3 C6 2.34 6 1.68 6 1 C4.68 1.33 3.36 1.66 2 2 C2.72703125 2.52787109 2.72703125 2.52787109 3.46875 3.06640625 C17.02587519 13.05175038 17.02587519 13.05175038 19 17 C19.99 17.33 20.98 17.66 22 18 C23.37701298 19.28817344 24.70644173 20.62804426 26 22 C26.7425 22.7425 27.485 23.485 28.25 24.25 C28.8275 24.8275 29.405 25.405 30 26 C29.67 26.66 29.34 27.32 29 28 C29.66 28.33 30.32 28.66 31 29 C32.13741886 31.06463119 33.18781256 33.17777551 34.1875 35.3125 C34.73792969 36.46363281 35.28835937 37.61476563 35.85546875 38.80078125 C36.96850923 41.91197631 37.26865284 43.03003238 36 46 C25.6805758 45.45687241 16.80745203 37.08962621 10 30 C2.77253203 21.19009694 -0.22172191 11.30781754 0 0 Z " fill="#6DA052" transform="translate(87,240)"/>
<path d="M0 0 C2.07626782 1.81673434 3.62097706 3.3548549 5 5.75 C5 7.07 5 8.39 5 9.75 C2.03 9.75 -0.94 9.75 -4 9.75 C-4.33 9.09 -4.66 8.43 -5 7.75 C-6.98 7.75 -8.96 7.75 -11 7.75 C-11.33 8.41 -11.66 9.07 -12 9.75 C-11.09636719 9.94335938 -10.19273437 10.13671875 -9.26171875 10.3359375 C-8.08222656 10.59632813 -6.90273438 10.85671875 -5.6875 11.125 C-4.51574219 11.38023437 -3.34398437 11.63546875 -2.13671875 11.8984375 C1 12.75 1 12.75 4 14.75 C4 15.41 4 16.07 4 16.75 C4.66 17.08 5.32 17.41 6 17.75 C5.79662373 19.17059843 5.5609859 20.58659398 5.3125 22 C5.12107422 23.18335938 5.12107422 23.18335938 4.92578125 24.390625 C3.61383465 27.73415134 2.06368713 28.90265478 -1 30.75 C-6.55073102 31.63348628 -13.02364183 31.97674222 -18.3125 29.796875 C-19.9375 28.5625 -19.9375 28.5625 -22 25.75 C-22.375 22.9375 -22.375 22.9375 -22 20.75 C-20.35 20.42 -18.7 20.09 -17 19.75 C-17.69802091 16.77867958 -17.69802091 16.77867958 -19.5 15.5 C-21.89605813 12.70459885 -21.93866012 10.36905321 -22 6.75 C-17.53923362 -2.0063192 -8.90261913 -3.70942464 0 0 Z M-14 17.75 C-12.91215032 20.99983135 -12.91215032 20.99983135 -11 23.75 C-9.00041636 23.79080783 -6.99954746 23.79254356 -5 23.75 C-5 22.43 -5 21.11 -5 19.75 C-9.455 18.76 -9.455 18.76 -14 17.75 Z " fill="#337159" transform="translate(268,242.25)"/>
<path d="M0 0 C10.89 0 21.78 0 33 0 C33 2.64 33 5.28 33 8 C29.04 8 25.08 8 21 8 C21 18.89 21 29.78 21 41 C18.03 41 15.06 41 12 41 C11 40 11 40 10.88647461 36.94897461 C10.88663366 35.60008729 10.89232388 34.25119386 10.90234375 32.90234375 C10.9037587 32.19348526 10.90517365 31.48462677 10.90663147 30.75428772 C10.91224557 28.48198288 10.92480037 26.20977525 10.9375 23.9375 C10.94251319 22.40039204 10.94707641 20.86328255 10.95117188 19.32617188 C10.96221958 15.55074358 10.97949359 11.77538829 11 8 C7.37 8 3.74 8 0 8 C0 5.36 0 2.72 0 0 Z " fill="#2B684F" transform="translate(184,232)"/>
<path d="M0 0 C3.3 0 6.6 0 10 0 C10 2.31 10 4.62 10 7 C11.98 7 13.96 7 16 7 C16 9.31 16 11.62 16 14 C14.02 14 12.04 14 10 14 C10.33 18.95 10.66 23.9 11 29 C12.65 29.33 14.3 29.66 16 30 C16 32.64 16 35.28 16 38 C14.41705218 38.05437607 12.83355744 38.09296271 11.25 38.125 C9.92742187 38.15980469 9.92742187 38.15980469 8.578125 38.1953125 C5.73145566 37.97965573 4.27603151 37.73176311 2 36 C-0.26992673 31.24600252 -0.24590438 26.76808633 -0.125 21.625 C-0.11597656 20.88894531 -0.10695313 20.15289062 -0.09765625 19.39453125 C-0.07430144 17.5962112 -0.03843836 15.79806089 0 14 C-0.99 14.33 -1.98 14.66 -3 15 C-4 14 -4 14 -4.0625 10.4375 C-4.041875 9.303125 -4.02125 8.16875 -4 7 C-2.68 7 -1.36 7 0 7 C0 4.69 0 2.38 0 0 Z " fill="#B5D361" transform="translate(397,235)"/>
<path d="M0 0 C2.97 0 5.94 0 9 0 C9.17083556 3.91649614 9.3358766 7.8332173 9.5 11.75 C9.54769531 12.84183594 9.59539062 13.93367187 9.64453125 15.05859375 C10.49086333 35.4914682 10.49086333 35.4914682 9 42 C6.03 42 3.06 42 0 42 C0 28.14 0 14.28 0 0 Z " fill="#B3D060" transform="translate(348,231)"/>
<path d="M0 0 C1.65 0.33 3.3 0.66 5 1 C4.67 2.65 4.34 4.3 4 6 C2.02 6 0.04 6 -2 6 C-1.505 7.0725 -1.01 8.145 -0.5 9.25 C0.88653911 12.25416808 1 13.45934895 1 17 C-2.34373475 16.44271087 -5.03312999 15.64826111 -8 14 C-8 13.67 -8 13.34 -8 13 C-8.33 12.67 -8.66 12.34 -9 12 C-9.04080783 10.00041636 -9.04254356 7.99954746 -9 6 C-8.34 6 -7.68 6 -7 6 C-6.34 4.35 -5.68 2.7 -5 1 C-3.68 1.33 -2.36 1.66 -1 2 C-0.67 1.34 -0.34 0.68 0 0 Z " fill="#115A3C" transform="translate(257,242)"/>
<path d="M0 0 C1.125 6.75 1.125 6.75 0 9 C-6.0546875 9.1953125 -6.0546875 9.1953125 -8 9 C-10 7 -10 7 -10.3125 4.5625 C-10 2 -10 2 -8.9375 0.125 C-5.88430685 -1.64782183 -3.33588292 -0.69235306 0 0 Z " fill="#BED676" transform="translate(330,221)"/>
</svg>
